<svg xmlns="http://www.w3.org/2000/svg" width="1080.599" height="1088.032" viewBox="0 0 1080.599 1088.032"><g transform="translate(-130.16 -39)"><g transform="translate(175.481 36.334) rotate(3)"><path d="M231.2,451.638c30.016,46.995,56.983,81.269,49.045,136.2-7.675,53.2-4.521,109.076-30.857,157.964-18.661,34.694,12.09,36.166,27.7,49.571,61.556,53.2,140.669,31.75,210.636,48.519,52.567,12.616,129.84,63.5,144.454-51.779,2.628-20.711,34.747-26.6,59.4-27.44,39.425-1.63,76.485,7.2,113.177,20.448,52.041,18.661,139.776-18.556,160.908-66.234,8.884-20.133-.631-23.129-16.979-31.33-43.525-21.6-40.9-55.984-30.226-99.877,9.147-38.216,16.4-93.937-31.383-111.495-43.841-16.138-15.98-31.8-6.1-41.265,47.258-46.1,75.013-100.718,103.452-160.855,28.912-60.978-.578-62.134-36.429-72.6C815.43,162.677,693.527,102.961,582.558,20.536,540.294-10.951,503.97-.911,500.869,51.393c-3.1,51.043-23.235,68.758-69.862,69.126-18.451.263-36.639,5.782-45,24.759-26.914,61.346-64.868,33.7-97.985,9.83-17.347-12.616-29.543-30.121-52.409-14.508-25.074,17.032-9.672,34.116-.053,52.567,27.913,53.3,15.034,62.239-45.681,58.822-12.564-.789-22.919-5.467-32.539-10.829-16.138-8.936-30.384-19.187-49.939-13.878-17.4,4.258-34.589,9.883-52.2,12.406C31.5,243.1-.673,231.383.011,273.331c.578,35.956,10.934,61.977,52.514,72.332C121.283,362.8,183.574,376.993,231.2,451.638Z" transform="translate(0 0)" fill="#00ddd0"/><path d="M31.967,65.568c-17.978,25.337-9.725,53.461,4.784,78.8,7.885,13.878,19.187,27.493,36.061,20.081C100.2,151.988,100.2,123.6,100.515,98.9c.263-24.233,8.253-50.675-15.35-81.163C65.19,35.132,44.794,47.59,31.967,65.568Z" transform="translate(974.422 740.696)" fill="#00ddd0"/></g><circle cx="169.5" cy="169.5" r="169.5" transform="translate(548.88 177.5)" fill="#ffa331"/><circle cx="94.5" cy="94.5" r="94.5" transform="translate(808.38 475)" fill="#ffa331"/><circle cx="80" cy="80" r="80" transform="translate(892.88 743)" fill="#ffa331"/><circle cx="56" cy="56" r="56" transform="translate(433.38 679)" fill="#ffa331"/><circle cx="69" cy="69" r="69" transform="translate(335.38 384)" fill="#ffa331"/><text transform="translate(655.88 361)" fill="#fff" font-size="40" font-family="Roboto-Bold, Roboto" font-weight="700"><tspan x="0" y="0">35 511</tspan></text><text transform="translate(444.88 747)" fill="#fff" font-size="35" font-family="Roboto-Bold, Roboto" font-weight="700"><tspan x="0" y="0">2 338</tspan></text><text transform="translate(359.88 465)" fill="#fff" font-size="35" font-family="Roboto-Bold, Roboto" font-weight="700"><tspan x="0" y="0">3 065</tspan></text><text transform="translate(928.38 835)" fill="#fff" font-size="35" font-family="Roboto-Bold, Roboto" font-weight="700"><tspan x="0" y="0">3 434</tspan></text><text transform="translate(858.38 581.5)" fill="#fff" font-size="35" font-family="Roboto-Bold, Roboto" font-weight="700"><tspan x="0" y="0">4 797</tspan></text><path d="M325.636,18.371h2.632a3.708,3.708,0,0,0,2.786-.94,3.444,3.444,0,0,0,.906-2.5,3.045,3.045,0,0,0-.9-2.341,3.477,3.477,0,0,0-2.469-.837,3.645,3.645,0,0,0-2.375.778,2.486,2.486,0,0,0-.957,2.025h-4.939a6.074,6.074,0,0,1,1.051-3.495,7,7,0,0,1,2.939-2.418,9.81,9.81,0,0,1,4.161-.872,9.3,9.3,0,0,1,6.187,1.888,6.443,6.443,0,0,1,2.239,5.2,5.236,5.236,0,0,1-1.042,3.145,6.773,6.773,0,0,1-2.734,2.2,6.183,6.183,0,0,1,3.136,2.256,6.119,6.119,0,0,1,1.034,3.555,6.55,6.55,0,0,1-2.418,5.315,9.723,9.723,0,0,1-6.4,2,9.219,9.219,0,0,1-6.093-1.965,6.418,6.418,0,0,1-2.367-5.2h4.939A2.861,2.861,0,0,0,326,28.471a4.384,4.384,0,0,0,5.349-.043,3.215,3.215,0,0,0,1-2.469q0-3.726-4.1-3.726h-2.615ZM355.3,23.635h2.82v3.982H355.3V33h-4.939V27.617h-10.2l-.222-3.11L350.313,8.117h4.99Zm-10.442,0h5.5V14.851l-.325.564ZM78.875,64.9a26.422,26.422,0,0,1,1.034-7.417,21.546,21.546,0,0,1,3.085-6.46,13.123,13.123,0,0,1,4.255-4.1l.649,2.085a13.611,13.611,0,0,0-4.093,5.845,25.338,25.338,0,0,0-1.752,8.8L82.037,65.1a25.47,25.47,0,0,0,2.41,11.45A13.675,13.675,0,0,0,87.9,81.1l-.649,1.931a13.544,13.544,0,0,1-4.341-4.238A23.755,23.755,0,0,1,78.875,64.9Zm11.313.7a10.832,10.832,0,0,1,2.017-6.844,6.861,6.861,0,0,1,10.425-.367V48.75h3.162V75h-2.905l-.154-1.982a6.439,6.439,0,0,1-5.281,2.324,6.316,6.316,0,0,1-5.238-2.632,10.955,10.955,0,0,1-2.025-6.87Zm3.162.359a8.2,8.2,0,0,0,1.3,4.922,4.2,4.2,0,0,0,3.589,1.777,4.612,4.612,0,0,0,4.392-2.7V61.465a4.648,4.648,0,0,0-4.358-2.615,4.219,4.219,0,0,0-3.623,1.794A9.03,9.03,0,0,0,93.351,65.959Zm16.509-.376a10.922,10.922,0,0,1,1.068-4.888,7.968,7.968,0,0,1,2.974-3.35,8.1,8.1,0,0,1,4.349-1.179,7.8,7.8,0,0,1,6.11,2.615,10.06,10.06,0,0,1,2.333,6.956v.222a11.017,11.017,0,0,1-1.034,4.845,7.851,7.851,0,0,1-2.957,3.341,8.188,8.188,0,0,1-4.418,1.2,7.779,7.779,0,0,1-6.093-2.615,10.009,10.009,0,0,1-2.333-6.921Zm3.179.376a7.911,7.911,0,0,0,1.427,4.939,4.836,4.836,0,0,0,7.648-.026,8.651,8.651,0,0,0,1.418-5.289,7.9,7.9,0,0,0-1.444-4.93,4.591,4.591,0,0,0-3.837-1.888,4.54,4.54,0,0,0-3.777,1.863A8.586,8.586,0,0,0,113.038,65.959Zm20.61-9.451.1,2.324a6.738,6.738,0,0,1,5.537-2.666q5.862,0,5.913,6.614V75H142.04V62.764a4.257,4.257,0,0,0-.914-2.957,3.664,3.664,0,0,0-2.794-.957,4.563,4.563,0,0,0-2.7.82,5.57,5.57,0,0,0-1.812,2.153V75h-3.162V56.509Zm20.61-4.478v4.478h3.452v2.444h-3.452V70.434a2.567,2.567,0,0,0,.461,1.668,1.942,1.942,0,0,0,1.572.556,7.655,7.655,0,0,0,1.5-.205V75a9.22,9.22,0,0,1-2.427.34,3.937,3.937,0,0,1-3.2-1.282,5.506,5.506,0,0,1-1.077-3.64V58.953H147.73V56.509H151.1V52.031ZM186.046,75h-16.3V72.727l8.613-9.57A20.462,20.462,0,0,0,181,59.628a5.89,5.89,0,0,0,.726-2.811,4.465,4.465,0,0,0-1.179-3.2,4.123,4.123,0,0,0-3.145-1.248,4.883,4.883,0,0,0-3.666,1.342,5.124,5.124,0,0,0-1.307,3.734h-3.162a7.339,7.339,0,0,1,2.213-5.554,8.2,8.2,0,0,1,5.922-2.119,7.884,7.884,0,0,1,5.486,1.82A6.208,6.208,0,0,1,184.9,56.44q0,3.674-4.683,8.75l-6.665,7.229h12.493ZM214,65.959a11.072,11.072,0,0,1-1.931,6.8,6.189,6.189,0,0,1-5.229,2.581,6.781,6.781,0,0,1-5.3-2.136v8.9h-3.162v-25.6h2.888l.154,2.051a6.513,6.513,0,0,1,5.366-2.393,6.305,6.305,0,0,1,5.272,2.512,11.193,11.193,0,0,1,1.94,6.99Zm-3.162-.359a8.17,8.17,0,0,0-1.333-4.939,4.294,4.294,0,0,0-3.657-1.812,4.648,4.648,0,0,0-4.307,2.546v8.835a4.657,4.657,0,0,0,4.341,2.529,4.274,4.274,0,0,0,3.615-1.8A8.918,8.918,0,0,0,210.843,65.6ZM229.437,75a6.642,6.642,0,0,1-.444-1.948,7.054,7.054,0,0,1-5.264,2.29,6.527,6.527,0,0,1-4.486-1.547,5,5,0,0,1-1.752-3.922,5.227,5.227,0,0,1,2.2-4.486,10.354,10.354,0,0,1,6.178-1.6h3.076V62.336a3.551,3.551,0,0,0-.991-2.64,3.984,3.984,0,0,0-2.922-.983,4.61,4.61,0,0,0-2.837.854,2.518,2.518,0,0,0-1.145,2.068h-3.179a4.363,4.363,0,0,1,.983-2.675,6.707,6.707,0,0,1,2.666-2.042,8.969,8.969,0,0,1,3.7-.752,7.31,7.31,0,0,1,5.007,1.6,5.764,5.764,0,0,1,1.88,4.4v8.511a10.405,10.405,0,0,0,.649,4.05V75Zm-5.247-2.41a5.557,5.557,0,0,0,2.82-.769,4.652,4.652,0,0,0,1.931-2V66.028h-2.478q-5.811,0-5.811,3.4a2.878,2.878,0,0,0,.991,2.324A3.81,3.81,0,0,0,224.19,72.59ZM246,59.346a9.474,9.474,0,0,0-1.555-.12,4.166,4.166,0,0,0-4.221,2.649V75h-3.162V56.509h3.076l.051,2.136a4.923,4.923,0,0,1,4.409-2.478,3.23,3.23,0,0,1,1.4.239ZM252.337,75h-3.162V56.509h3.162Zm-3.418-23.4a1.887,1.887,0,0,1,.47-1.3,1.765,1.765,0,0,1,1.393-.53,1.792,1.792,0,0,1,1.4.53,1.867,1.867,0,0,1,.479,1.3,1.806,1.806,0,0,1-.479,1.282,1.824,1.824,0,0,1-1.4.513,1.8,1.8,0,0,1-1.393-.513A1.825,1.825,0,0,1,248.919,51.6ZM268.163,70.1A2.328,2.328,0,0,0,267.2,68.1a9.294,9.294,0,0,0-3.367-1.222,15.918,15.918,0,0,1-3.811-1.23,5.422,5.422,0,0,1-2.085-1.709,4.088,4.088,0,0,1-.675-2.358,4.8,4.8,0,0,1,1.923-3.845,7.508,7.508,0,0,1,4.913-1.572,7.726,7.726,0,0,1,5.1,1.624,5.157,5.157,0,0,1,1.957,4.153h-3.179a2.854,2.854,0,0,0-1.1-2.239,4.13,4.13,0,0,0-2.777-.94,4.322,4.322,0,0,0-2.7.752,2.367,2.367,0,0,0-.974,1.965,1.918,1.918,0,0,0,.906,1.726,11.144,11.144,0,0,0,3.273,1.111,17.052,17.052,0,0,1,3.837,1.265,5.6,5.6,0,0,1,2.179,1.769,4.349,4.349,0,0,1,.709,2.521,4.732,4.732,0,0,1-1.982,3.973,8.315,8.315,0,0,1-5.144,1.5,9.312,9.312,0,0,1-3.931-.786,6.393,6.393,0,0,1-2.675-2.2,5.293,5.293,0,0,1-.966-3.051h3.162a3.273,3.273,0,0,0,1.273,2.521,4.939,4.939,0,0,0,3.136.931,5.1,5.1,0,0,0,2.88-.726A2.232,2.232,0,0,0,268.163,70.1ZM278.878,75h-3.162V56.509h3.162ZM275.46,51.6a1.887,1.887,0,0,1,.47-1.3,1.765,1.765,0,0,1,1.393-.53,1.792,1.792,0,0,1,1.4.53,1.867,1.867,0,0,1,.479,1.3,1.806,1.806,0,0,1-.479,1.282,1.824,1.824,0,0,1-1.4.513,1.8,1.8,0,0,1-1.393-.513A1.825,1.825,0,0,1,275.46,51.6Zm16.15,23.738a8.079,8.079,0,0,1-6.118-2.469,9.166,9.166,0,0,1-2.358-6.605v-.581a11.1,11.1,0,0,1,1.051-4.913,8.2,8.2,0,0,1,2.939-3.384,7.39,7.39,0,0,1,4.093-1.222,6.925,6.925,0,0,1,5.605,2.375q2,2.375,2,6.8V66.66H286.295a6.573,6.573,0,0,0,1.6,4.418,5.023,5.023,0,0,0,3.888,1.683,5.507,5.507,0,0,0,2.837-.684,7.128,7.128,0,0,0,2.034-1.812l1.931,1.5A7.765,7.765,0,0,1,291.61,75.342Zm-.393-16.577A4.217,4.217,0,0,0,288,60.157a6.77,6.77,0,0,0-1.606,3.905h9.263v-.239a6.022,6.022,0,0,0-1.3-3.734A3.97,3.97,0,0,0,291.217,58.765Zm14.253-2.256.1,2.324a6.738,6.738,0,0,1,5.537-2.666q5.862,0,5.913,6.614V75h-3.162V62.764a4.257,4.257,0,0,0-.914-2.957,3.664,3.664,0,0,0-2.794-.957,4.563,4.563,0,0,0-2.7.82,5.57,5.57,0,0,0-1.812,2.153V75h-3.162V56.509ZM332.557,70.1a2.328,2.328,0,0,0-.966-1.991,9.294,9.294,0,0,0-3.367-1.222,15.918,15.918,0,0,1-3.811-1.23,5.422,5.422,0,0,1-2.085-1.709,4.088,4.088,0,0,1-.675-2.358,4.8,4.8,0,0,1,1.923-3.845,7.508,7.508,0,0,1,4.913-1.572,7.726,7.726,0,0,1,5.1,1.624,5.157,5.157,0,0,1,1.957,4.153h-3.179a2.854,2.854,0,0,0-1.1-2.239,4.13,4.13,0,0,0-2.777-.94,4.322,4.322,0,0,0-2.7.752,2.367,2.367,0,0,0-.974,1.965,1.918,1.918,0,0,0,.906,1.726,11.144,11.144,0,0,0,3.273,1.111,17.052,17.052,0,0,1,3.837,1.265,5.6,5.6,0,0,1,2.179,1.769,4.349,4.349,0,0,1,.709,2.521,4.732,4.732,0,0,1-1.982,3.973,8.315,8.315,0,0,1-5.144,1.5,9.312,9.312,0,0,1-3.931-.786,6.393,6.393,0,0,1-2.675-2.2,5.293,5.293,0,0,1-.966-3.051h3.162a3.273,3.273,0,0,0,1.273,2.521,4.939,4.939,0,0,0,3.136.931,5.1,5.1,0,0,0,2.88-.726A2.232,2.232,0,0,0,332.557,70.1Zm31.565-4.136a11.072,11.072,0,0,1-1.931,6.8,6.189,6.189,0,0,1-5.229,2.581,6.781,6.781,0,0,1-5.3-2.136v8.9H348.5v-25.6h2.888l.154,2.051a6.513,6.513,0,0,1,5.366-2.393,6.305,6.305,0,0,1,5.272,2.512,11.193,11.193,0,0,1,1.94,6.99ZM360.96,65.6a8.17,8.17,0,0,0-1.333-4.939,4.294,4.294,0,0,0-3.657-1.812,4.648,4.648,0,0,0-4.307,2.546v8.835A4.657,4.657,0,0,0,356,72.761a4.274,4.274,0,0,0,3.615-1.8A8.918,8.918,0,0,0,360.96,65.6Zm6.34-.017a10.922,10.922,0,0,1,1.068-4.888,7.968,7.968,0,0,1,2.974-3.35,8.1,8.1,0,0,1,4.349-1.179,7.8,7.8,0,0,1,6.11,2.615,10.06,10.06,0,0,1,2.333,6.956v.222A11.017,11.017,0,0,1,383.1,70.8a7.851,7.851,0,0,1-2.957,3.341,8.188,8.188,0,0,1-4.418,1.2,7.779,7.779,0,0,1-6.093-2.615,10.009,10.009,0,0,1-2.333-6.921Zm3.179.376a7.911,7.911,0,0,0,1.427,4.939,4.836,4.836,0,0,0,7.648-.026,8.65,8.65,0,0,0,1.418-5.289,7.9,7.9,0,0,0-1.444-4.93,4.591,4.591,0,0,0-3.837-1.888,4.54,4.54,0,0,0-3.777,1.863A8.586,8.586,0,0,0,370.479,65.959Zm26.558-6.614a9.474,9.474,0,0,0-1.555-.12,4.166,4.166,0,0,0-4.221,2.649V75H388.1V56.509h3.076l.051,2.136a4.923,4.923,0,0,1,4.409-2.478,3.23,3.23,0,0,1,1.4.239Zm8.049-7.314v4.478h3.452v2.444h-3.452V70.434a2.567,2.567,0,0,0,.461,1.668,1.942,1.942,0,0,0,1.572.556,7.655,7.655,0,0,0,1.5-.205V75a9.22,9.22,0,0,1-2.427.34A3.937,3.937,0,0,1,403,74.06a5.506,5.506,0,0,1-1.077-3.64V58.953h-3.367V56.509h3.367V52.031ZM419.9,75.342a8.079,8.079,0,0,1-6.118-2.469,9.166,9.166,0,0,1-2.358-6.605v-.581a11.1,11.1,0,0,1,1.051-4.913,8.2,8.2,0,0,1,2.939-3.384,7.39,7.39,0,0,1,4.093-1.222,6.925,6.925,0,0,1,5.605,2.375q2,2.375,2,6.8V66.66H414.588a6.573,6.573,0,0,0,1.6,4.418,5.023,5.023,0,0,0,3.888,1.683,5.507,5.507,0,0,0,2.837-.684,7.128,7.128,0,0,0,2.034-1.812l1.931,1.5A7.765,7.765,0,0,1,419.9,75.342Zm-.393-16.577a4.217,4.217,0,0,0-3.213,1.393,6.77,6.77,0,0,0-1.606,3.905h9.263v-.239a6.022,6.022,0,0,0-1.3-3.734A3.97,3.97,0,0,0,419.51,58.765Zm1.538-10.015h3.828l-4.58,5.024-2.546-.009ZM441.539,70.1a2.328,2.328,0,0,0-.966-1.991,9.294,9.294,0,0,0-3.367-1.222,15.918,15.918,0,0,1-3.811-1.23,5.422,5.422,0,0,1-2.085-1.709,4.088,4.088,0,0,1-.675-2.358,4.8,4.8,0,0,1,1.923-3.845,7.508,7.508,0,0,1,4.913-1.572,7.726,7.726,0,0,1,5.1,1.624,5.157,5.157,0,0,1,1.957,4.153h-3.179a2.854,2.854,0,0,0-1.1-2.239,4.13,4.13,0,0,0-2.777-.94,4.322,4.322,0,0,0-2.7.752,2.367,2.367,0,0,0-.974,1.965,1.918,1.918,0,0,0,.906,1.726,11.144,11.144,0,0,0,3.273,1.111,17.052,17.052,0,0,1,3.837,1.265,5.6,5.6,0,0,1,2.179,1.769,4.349,4.349,0,0,1,.709,2.521,4.732,4.732,0,0,1-1.982,3.973,8.315,8.315,0,0,1-5.144,1.5,9.312,9.312,0,0,1-3.931-.786,6.393,6.393,0,0,1-2.675-2.2A5.293,5.293,0,0,1,430,69.309h3.162a3.273,3.273,0,0,0,1.273,2.521,4.939,4.939,0,0,0,3.136.931,5.1,5.1,0,0,0,2.88-.726A2.232,2.232,0,0,0,441.539,70.1ZM456.715,65.6a10.832,10.832,0,0,1,2.017-6.844,6.861,6.861,0,0,1,10.425-.367V48.75h3.162V75h-2.905l-.154-1.982a6.439,6.439,0,0,1-5.281,2.324,6.316,6.316,0,0,1-5.238-2.632,10.955,10.955,0,0,1-2.025-6.87Zm3.162.359a8.2,8.2,0,0,0,1.3,4.922,4.2,4.2,0,0,0,3.589,1.777,4.612,4.612,0,0,0,4.392-2.7V61.465A4.648,4.648,0,0,0,464.8,58.85a4.219,4.219,0,0,0-3.623,1.794A9.03,9.03,0,0,0,459.876,65.959ZM480.658,75H477.5V56.509h3.162ZM477.24,51.6a1.887,1.887,0,0,1,.47-1.3,1.765,1.765,0,0,1,1.393-.53,1.792,1.792,0,0,1,1.4.53,1.867,1.867,0,0,1,.479,1.3,1.806,1.806,0,0,1-.479,1.282,1.824,1.824,0,0,1-1.4.513,1.8,1.8,0,0,1-1.393-.513A1.825,1.825,0,0,1,477.24,51.6ZM496.483,70.1a2.328,2.328,0,0,0-.966-1.991,9.294,9.294,0,0,0-3.367-1.222,15.918,15.918,0,0,1-3.811-1.23,5.422,5.422,0,0,1-2.085-1.709,4.088,4.088,0,0,1-.675-2.358,4.8,4.8,0,0,1,1.923-3.845,7.508,7.508,0,0,1,4.913-1.572,7.726,7.726,0,0,1,5.1,1.624,5.157,5.157,0,0,1,1.957,4.153h-3.179a2.854,2.854,0,0,0-1.1-2.239,4.13,4.13,0,0,0-2.777-.94,4.322,4.322,0,0,0-2.7.752,2.367,2.367,0,0,0-.974,1.965,1.918,1.918,0,0,0,.906,1.726,11.144,11.144,0,0,0,3.273,1.111,17.052,17.052,0,0,1,3.837,1.265,5.6,5.6,0,0,1,2.179,1.769,4.349,4.349,0,0,1,.709,2.521,4.732,4.732,0,0,1-1.982,3.973,8.315,8.315,0,0,1-5.144,1.5,9.312,9.312,0,0,1-3.931-.786,6.393,6.393,0,0,1-2.675-2.2,5.293,5.293,0,0,1-.966-3.051h3.162a3.273,3.273,0,0,0,1.273,2.521,4.939,4.939,0,0,0,3.136.931,5.1,5.1,0,0,0,2.88-.726A2.232,2.232,0,0,0,496.483,70.1Zm22.9-4.136a11.072,11.072,0,0,1-1.931,6.8,6.189,6.189,0,0,1-5.229,2.581,6.781,6.781,0,0,1-5.3-2.136v8.9h-3.162v-25.6h2.888l.154,2.051a6.513,6.513,0,0,1,5.366-2.393,6.305,6.305,0,0,1,5.272,2.512,11.193,11.193,0,0,1,1.94,6.99Zm-3.162-.359a8.17,8.17,0,0,0-1.333-4.939,4.294,4.294,0,0,0-3.657-1.812,4.648,4.648,0,0,0-4.307,2.546v8.835a4.657,4.657,0,0,0,4.341,2.529,4.274,4.274,0,0,0,3.615-1.8A8.918,8.918,0,0,0,516.222,65.6ZM534.815,75a6.642,6.642,0,0,1-.444-1.948,7.054,7.054,0,0,1-5.264,2.29,6.527,6.527,0,0,1-4.486-1.547,5,5,0,0,1-1.752-3.922,5.227,5.227,0,0,1,2.2-4.486,10.354,10.354,0,0,1,6.178-1.6h3.076V62.336a3.551,3.551,0,0,0-.991-2.64,3.984,3.984,0,0,0-2.922-.983,4.61,4.61,0,0,0-2.837.854,2.518,2.518,0,0,0-1.145,2.068h-3.179a4.363,4.363,0,0,1,.983-2.675,6.706,6.706,0,0,1,2.666-2.042,8.969,8.969,0,0,1,3.7-.752,7.31,7.31,0,0,1,5.007,1.6,5.764,5.764,0,0,1,1.88,4.4v8.511a10.406,10.406,0,0,0,.649,4.05V75Zm-5.247-2.41a5.557,5.557,0,0,0,2.82-.769,4.652,4.652,0,0,0,1.931-2V66.028h-2.478q-5.811,0-5.811,3.4a2.878,2.878,0,0,0,.991,2.324A3.81,3.81,0,0,0,529.569,72.59Zm21.807-13.245a9.474,9.474,0,0,0-1.555-.12,4.166,4.166,0,0,0-4.221,2.649V75h-3.162V56.509h3.076l.051,2.136a4.923,4.923,0,0,1,4.409-2.478,3.23,3.23,0,0,1,1.4.239ZM565.7,73.171a6.716,6.716,0,0,1-5.417,2.17,5.748,5.748,0,0,1-4.5-1.718,7.434,7.434,0,0,1-1.564-5.084V56.509h3.162V68.455q0,4.2,3.418,4.2,3.623,0,4.819-2.7V56.509h3.162V75h-3.008ZM584.342,70.1a2.327,2.327,0,0,0-.966-1.991,9.294,9.294,0,0,0-3.367-1.222,15.917,15.917,0,0,1-3.811-1.23,5.422,5.422,0,0,1-2.085-1.709,4.088,4.088,0,0,1-.675-2.358,4.8,4.8,0,0,1,1.923-3.845,7.508,7.508,0,0,1,4.913-1.572,7.726,7.726,0,0,1,5.1,1.624,5.157,5.157,0,0,1,1.957,4.153h-3.179a2.854,2.854,0,0,0-1.1-2.239,4.13,4.13,0,0,0-2.777-.94,4.323,4.323,0,0,0-2.7.752,2.367,2.367,0,0,0-.974,1.965,1.918,1.918,0,0,0,.906,1.726,11.144,11.144,0,0,0,3.273,1.111,17.052,17.052,0,0,1,3.837,1.265,5.6,5.6,0,0,1,2.179,1.769,4.349,4.349,0,0,1,.709,2.521,4.732,4.732,0,0,1-1.982,3.973,8.315,8.315,0,0,1-5.144,1.5,9.312,9.312,0,0,1-3.931-.786,6.393,6.393,0,0,1-2.675-2.2,5.293,5.293,0,0,1-.966-3.051h3.162a3.273,3.273,0,0,0,1.273,2.521,4.939,4.939,0,0,0,3.136.931,5.1,5.1,0,0,0,2.88-.726A2.232,2.232,0,0,0,584.342,70.1Zm14.578-5.024a26.435,26.435,0,0,1-1,7.306,21.6,21.6,0,0,1-3.059,6.451,13.4,13.4,0,0,1-4.315,4.2l-.667-1.931a13.739,13.739,0,0,0,4.23-6.263,27.1,27.1,0,0,0,1.632-9.425v-.547a28.135,28.135,0,0,0-.752-6.674,22.523,22.523,0,0,0-2.094-5.529,12.77,12.77,0,0,0-3.016-3.811l.667-1.931a13.351,13.351,0,0,1,4.3,4.17,21.65,21.65,0,0,1,3.059,6.443A27.044,27.044,0,0,1,598.919,65.071Z" transform="translate(603.38 1044)" fill="#2c343f"/><g transform="translate(1082.411 1056.999) rotate(-167)"><path d="M.113,132.438c2.761-8.5,7.01-16.569,10.621-24.641.425-1.062,2.124-1.062,2.761-.425,3.611,3.824,7.647,7.647,9.984,12.32h.212c25.915,1.912,50.98-20.18,68.824-36.324,20.6-18.48,39.3-41,46.732-67.974a85.991,85.991,0,0,0,.85-10.621,1.275,1.275,0,1,1,2.549,0V6.686a1.515,1.515,0,0,1,1.487,1.7c-.212,2.337-.85,4.673-1.275,7.01C141.159,72.961,83.806,128.4,27.728,132.013c1.912,3.4,3.611,7.009,5.735,10.409,1.062,1.487-.637,2.974-2.124,2.761C20.717,143.7,11.159,138.6,1.387,134.775A1.749,1.749,0,0,1,.113,132.438Zm28.464,8.5c-1.275-2.761-2.124-5.523-3.611-8.284a1.569,1.569,0,0,1,.85-2.124,1.346,1.346,0,0,1,1.062-1.275c50.768-8.5,91.977-43.121,107.271-90.066C124.166,57.666,108.871,73.81,93.79,87.4a213.237,213.237,0,0,1-35.474,26.34c-9.984,5.735-22.516,11.046-33.987,7.435h0c.637,1.7-1.912,2.549-2.761,1.275-2.761-3.611-5.523-7.01-8.5-10.2-2.974,6.585-6.16,13.17-8.5,19.967C12.433,135.2,20.293,139.023,28.577,140.935Z" transform="translate(0 -3.5)" fill="#ff7949"/></g></g></svg>